<svg enable-background="new 0 0 24 24" height="512" viewBox="0 0 24 24" width="512" xmlns="http://www.w3.org/2000/svg"><path d="m21.91 14.835-4.91-2.835 4.91-2.835c.478-.276.642-.888.366-1.366l-1.5-2.598c-.276-.478-.887-.642-1.366-.366l-4.91 2.835v-5.67c0-.552-.448-1-1-1h-3c-.552 0-1 .448-1 1v5.67l-4.91-2.835c-.479-.276-1.09-.112-1.366.366l-1.5 2.598c-.276.478-.113 1.09.366 1.366l4.91 2.835-4.91 2.835c-.478.276-.642.888-.366 1.366l1.5 2.598c.276.478.888.642 1.366.366l4.91-2.835v5.67c0 .552.448 1 1 1h3c.552 0 1-.448 1-1v-5.67l4.91 2.835c.478.276 1.09.112 1.366-.366l1.5-2.598c.276-.478.113-1.09-.366-1.366z"/></svg>